<svg id="Layer_1" data-name="Layer 1" xmlns="http://www.w3.org/2000/svg" viewBox="0 0 612 792"><defs><style>.cls-1{fill:#d1d3d4;}</style></defs><title>backgroundimage1.2</title><path class="cls-1" d="M584.73,739.84h-67c-3.23,0-3.24,5,0,5h67c3.23,0,3.24-5,0-5Z"/><path class="cls-1" d="M584.73,42.77h-67c-3.23,0-3.24,5,0,5h67c3.23,0,3.24-5,0-5Z"/><path class="cls-1" d="M586.35,681.17H554.94c-3.23,0-3.24,5,0,5h31.41c3.23,0,3.24-5,0-5Z"/><path class="cls-1" d="M586.35,622.49H554.94c-3.23,0-3.24,5,0,5h31.41c3.23,0,3.24-5,0-5Z"/><path class="cls-1" d="M586.35,571.12H554.94c-3.23,0-3.24,5,0,5h31.41c3.23,0,3.24-5,0-5Z"/><path class="cls-1" d="M586.35,519.74H554.94c-3.23,0-3.24,5,0,5h31.41c3.23,0,3.24-5,0-5Z"/><path class="cls-1" d="M586.35,468.37H554.94c-3.23,0-3.24,5,0,5h31.41c3.23,0,3.24-5,0-5Z"/><path class="cls-1" d="M586.35,409.69H554.94c-3.23,0-3.24,5,0,5h31.41c3.23,0,3.24-5,0-5Z"/><path class="cls-1" d="M586.35,358.32H554.94c-3.23,0-3.24,5,0,5h31.41c3.23,0,3.24-5,0-5Z"/><path class="cls-1" d="M586.35,306.94H554.94c-3.23,0-3.24,5,0,5h31.41c3.23,0,3.24-5,0-5Z"/><path class="cls-1" d="M586.35,255.57H554.94c-3.23,0-3.24,5,0,5h31.41c3.23,0,3.24-5,0-5Z"/><path class="cls-1" d="M586.35,204.19H554.94c-3.23,0-3.24,5,0,5h31.41c3.23,0,3.24-5,0-5Z"/><path class="cls-1" d="M586.35,145.52H554.94c-3.23,0-3.24,5,0,5h31.41c3.23,0,3.24-5,0-5Z"/><path class="cls-1" d="M586.35,94.14H554.94c-3.23,0-3.24,5,0,5h31.41c3.23,0,3.24-5,0-5Z"/><path class="cls-1" d="M24.67,744.86h67c3.23,0,3.24-5,0-5h-67c-3.23,0-3.24,5,0,5Z"/><path class="cls-1" d="M24.67,47.79h67c3.23,0,3.24-5,0-5h-67c-3.23,0-3.24,5,0,5Z"/><path class="cls-1" d="M22.7,686.19H54.1c3.23,0,3.24-5,0-5H22.7c-3.23,0-3.24,5,0,5Z"/><path class="cls-1" d="M22.7,627.51H54.1c3.23,0,3.24-5,0-5H22.7c-3.23,0-3.24,5,0,5Z"/><path class="cls-1" d="M22.7,576.14H54.1c3.23,0,3.24-5,0-5H22.7c-3.23,0-3.24,5,0,5Z"/><path class="cls-1" d="M22.7,524.76H54.1c3.23,0,3.24-5,0-5H22.7c-3.23,0-3.24,5,0,5Z"/><path class="cls-1" d="M23.05,473.39H54.46c3.23,0,3.24-5,0-5H23.05c-3.23,0-3.24,5,0,5Z"/><path class="cls-1" d="M23.05,414.71H54.46c3.23,0,3.24-5,0-5H23.05c-3.23,0-3.24,5,0,5Z"/><path class="cls-1" d="M23.05,363.34H54.46c3.23,0,3.24-5,0-5H23.05c-3.23,0-3.24,5,0,5Z"/><path class="cls-1" d="M23.05,312H54.46c3.23,0,3.24-5,0-5H23.05c-3.23,0-3.24,5,0,5Z"/><path class="cls-1" d="M23.05,260.59H54.46c3.23,0,3.24-5,0-5H23.05c-3.23,0-3.24,5,0,5Z"/><path class="cls-1" d="M23.05,209.21H54.46c3.23,0,3.24-5,0-5H23.05c-3.23,0-3.24,5,0,5Z"/><path class="cls-1" d="M23.05,150.54H54.46c3.23,0,3.24-5,0-5H23.05c-3.23,0-3.24,5,0,5Z"/><path class="cls-1" d="M23.05,99.16H54.46c3.23,0,3.24-5,0-5H23.05c-3.23,0-3.24,5,0,5Z"/></svg>