<svg id="Layer_1" data-name="Layer 1" xmlns="http://www.w3.org/2000/svg" viewBox="0 0 568.58 736.86"><defs><style>.cls-1{fill:#7fc574;}.cls-2,.cls-4{fill:none;stroke-miterlimit:10;}.cls-2{stroke:#f1f2f2;stroke-width:9.3px;stroke-dasharray:16.75;}.cls-3{fill:#f1f2f2;}.cls-4{stroke:#808285;stroke-width:3.19px;}.cls-5{fill:#fff;}</style></defs><title>backgroundimage2</title><rect class="cls-1" width="568.58" height="736.86"/><path class="cls-2" d="M140.39,0"/><path class="cls-2" d="M401,190.73"/><path class="cls-3" d="M515.55,688.53h-62c-3,0-3,4.65,0,4.65h62c3,0,3-4.65,0-4.65Z"/><path class="cls-3" d="M515.55,42.66h-62c-3,0-3,4.65,0,4.65h62c3,0,3-4.65,0-4.65Z"/><path class="cls-3" d="M517,634.17h-29.1c-3,0-3,4.65,0,4.65H517c3,0,3-4.65,0-4.65Z"/><path class="cls-3" d="M517,579.81h-29.1c-3,0-3,4.65,0,4.65H517c3,0,3-4.65,0-4.65Z"/><path class="cls-3" d="M517,532.2h-29.1c-3,0-3,4.65,0,4.65H517c3,0,3-4.65,0-4.65Z"/><path class="cls-3" d="M517,484.6h-29.1c-3,0-3,4.65,0,4.65H517c3,0,3-4.65,0-4.65Z"/><path class="cls-3" d="M517,437h-29.1c-3,0-3,4.65,0,4.65H517c3,0,3-4.65,0-4.65Z"/><path class="cls-3" d="M517,382.64h-29.1c-3,0-3,4.65,0,4.65H517c3,0,3-4.65,0-4.65Z"/><path class="cls-3" d="M517,335h-29.1c-3,0-3,4.65,0,4.65H517c3,0,3-4.65,0-4.65Z"/><path class="cls-3" d="M517,287.43h-29.1c-3,0-3,4.65,0,4.65H517c3,0,3-4.65,0-4.65Z"/><path class="cls-3" d="M517,239.83h-29.1c-3,0-3,4.65,0,4.65H517c3,0,3-4.65,0-4.65Z"/><path class="cls-3" d="M517,192.23h-29.1c-3,0-3,4.65,0,4.65H517c3,0,3-4.65,0-4.65Z"/><path class="cls-3" d="M517,137.86h-29.1c-3,0-3,4.65,0,4.65H517c3,0,3-4.65,0-4.65Z"/><path class="cls-3" d="M517,90.26h-29.1c-3,0-3,4.65,0,4.65H517c3,0,3-4.65,0-4.65Z"/><path class="cls-3" d="M53.8,693.18h62c3,0,3-4.65,0-4.65h-62c-3,0-3,4.65,0,4.65Z"/><path class="cls-3" d="M53.8,47.31h62c3,0,3-4.65,0-4.65h-62c-3,0-3,4.65,0,4.65Z"/><path class="cls-3" d="M51.88,638.82H81c3,0,3-4.65,0-4.65H51.88c-3,0-3,4.65,0,4.65Z"/><path class="cls-3" d="M51.88,584.46H81c3,0,3-4.65,0-4.65H51.88c-3,0-3,4.65,0,4.65Z"/><path class="cls-3" d="M51.88,536.86H81c3,0,3-4.65,0-4.65H51.88c-3,0-3,4.65,0,4.65Z"/><path class="cls-3" d="M51.88,489.25H81c3,0,3-4.65,0-4.65H51.88c-3,0-3,4.65,0,4.65Z"/><path class="cls-3" d="M52.3,441.65H81.4c3,0,3-4.65,0-4.65H52.3c-3,0-3,4.65,0,4.65Z"/><path class="cls-3" d="M52.3,387.29H81.4c3,0,3-4.65,0-4.65H52.3c-3,0-3,4.65,0,4.65Z"/><path class="cls-3" d="M52.3,339.68H81.4c3,0,3-4.65,0-4.65H52.3c-3,0-3,4.65,0,4.65Z"/><path class="cls-3" d="M52.3,292.08H81.4c3,0,3-4.65,0-4.65H52.3c-3,0-3,4.65,0,4.65Z"/><path class="cls-3" d="M52.3,244.48H81.4c3,0,3-4.65,0-4.65H52.3c-3,0-3,4.65,0,4.65Z"/><path class="cls-3" d="M52.3,196.88H81.4c3,0,3-4.65,0-4.65H52.3c-3,0-3,4.65,0,4.65Z"/><path class="cls-3" d="M52.3,142.51H81.4c3,0,3-4.65,0-4.65H52.3c-3,0-3,4.65,0,4.65Z"/><path class="cls-3" d="M52.3,94.91H81.4c3,0,3-4.65,0-4.65H52.3c-3,0-3,4.65,0,4.65Z"/><path class="cls-4" d="M386.39,541.74"/><path class="cls-5" d="M83.73-18.72"/></svg>