<?xml version="1.0" encoding="utf-8"?>
<!-- Generator: Adobe Illustrator 21.1.0, SVG Export Plug-In . SVG Version: 6.00 Build 0)  -->
<svg version="1.1" id="Layer_1" xmlns="http://www.w3.org/2000/svg" xmlns:xlink="http://www.w3.org/1999/xlink" x="0px" y="0px"
	 viewBox="0 0 792 612" style="enable-background:new 0 0 792 612;" xml:space="preserve">
<style type="text/css">
	.st0{fill:#FFFFFF;}
	.st1{fill:#1B2C5A;}
	.st2{fill:none;stroke:#FFFFFF;stroke-miterlimit:10;}
	.st3{fill:none;stroke:#FFFFFF;stroke-width:2;stroke-miterlimit:10;}
	.st4{fill:none;stroke:#FFFFFF;stroke-width:3.0158;stroke-miterlimit:10;}
</style>
<path class="st0" d="M365.5,299h19.8c0.5,0,1,0.2,1.4,0.6c0.4,0.4,0.6,0.8,0.6,1.4v9.4c0,6.3-2.3,11.2-6.8,14.7
	c-4.5,3.4-10.5,5.1-18,5.1c-7.5,0-13.4-1.6-17.7-4.9c-4.3-3.3-6.5-8.1-6.5-14.6v-11.8c0-6.2,2.2-11,6.6-14.3
	c4.4-3.3,10.3-4.9,17.7-4.9c7.4,0,13.3,1.5,17.9,4.5c4.6,3,6.8,6.6,6.8,11c0,0.4-0.2,0.8-0.5,1.1c-0.3,0.3-0.7,0.4-1.1,0.4h-15.9
	c-1,0-1.7-0.2-2.1-0.6c-1-1-1.7-1.6-2.2-1.7c-1.1-0.3-2.1-0.5-3-0.5c-3.7,0-5.5,1.7-5.5,5.1v11.6c0,3.9,2,5.8,5.9,5.8
	c4,0,6-1.7,6-5.2h-3.4c-0.5,0-1-0.2-1.4-0.6c-0.4-0.4-0.6-0.8-0.6-1.4v-8c0-0.5,0.2-1,0.6-1.4C364.5,299.2,364.9,299,365.5,299z"/>
<path class="st0" d="M397.1,279.6h20.7c7,0,12.8,1.7,17.3,5.2c4.5,3.5,6.8,8.3,6.8,14.6v10.7c0,6.5-2.2,11.5-6.6,14.8
	c-4.4,3.4-10.2,5-17.4,5h-20.8c-0.5,0-1-0.2-1.4-0.6c-0.4-0.4-0.6-0.8-0.6-1.4v-46.5c0-0.5,0.2-1,0.6-1.4
	C396.1,279.8,396.6,279.6,397.1,279.6z"/>
<path class="st0" d="M467.9,330h-10.3c-0.9,0-1.7-0.3-2.3-0.8c-0.6-0.6-0.9-1.2-1-1.9l-9.6-45.9v-0.2c0-0.4,0.2-0.8,0.5-1.1
	c0.3-0.3,0.7-0.5,1.1-0.5h13.4c1.6,0,2.4,0.6,2.6,1.9l5.5,28.3l3-9c0.5-1.4,1.3-2.1,2.4-2.1h7.3c1.2,0,2,0.7,2.4,2.1l3,8.9l5.5-28.2
	c0.1-1.3,1-1.9,2.6-1.9h13.4c0.4,0,0.8,0.2,1.1,0.5c0.3,0.3,0.5,0.7,0.5,1.1v0.2l-9.6,45.9c-0.1,0.7-0.4,1.4-1,1.9
	c-0.6,0.6-1.4,0.8-2.3,0.8h-10.3c-1.5,0-2.5-0.6-3-1.9l-5.9-6.8l-5.9,6.8C470.4,329.3,469.4,330,467.9,330z"/>
<path class="st1" d="M411.8,330c0,0,19.3,2.7,26.9-8.5l-9.5-3L411.8,330z"/>
<path class="st1" d="M438.7,321.5c-7.5-18.8-22.5-22.1-22.5-22.1s-9.4,10.9-4.4,30.6"/>
<path class="st0" d="M440,325.4"/>
<line class="st2" x1="419.5" y1="319.1" x2="425.8" y2="316.8"/>
<line class="st2" x1="420.8" y1="322.5" x2="427.1" y2="320.3"/>
<line class="st2" x1="422" y1="326.1" x2="428.3" y2="323.9"/>
<line class="st3" x1="426.6" y1="329" x2="421.3" y2="313.9"/>
<line class="st4" x1="328.9" y1="328.8" x2="328.9" y2="280.9"/>
<path class="st4" d="M330.3,281.5c-6.1,0.5-9.9,9.9-16,10.7c-1.3,0.2-2.7-0.1-4,0.1c-2.2,0.3-4.1,1.8-5.5,3.5
	c-1.4,1.7-2.4,3.7-3.8,5.5c-3.2,4.3-8,7.4-13.3,8.4c3.4,2.5,7.6,4.1,11.8,4.1c4.2,0,8.5-1.7,11.3-4.9c1.1-1.3,2.1-2.9,3.7-3.5
	c1.5-0.6,3.2-0.2,4.9-0.3c3.9-0.3,6.8-3.5,9.2-6.5"/>
</svg>
