<?xml version="1.0" encoding="utf-8"?>
<!-- Generator: Adobe Illustrator 21.1.0, SVG Export Plug-In . SVG Version: 6.00 Build 0)  -->
<svg version="1.1" id="Layer_1" xmlns="http://www.w3.org/2000/svg" xmlns:xlink="http://www.w3.org/1999/xlink" x="0px" y="0px"
	 viewBox="0 0 494.4 245.8" style="enable-background:new 0 0 494.4 245.8;" xml:space="preserve">
<style type="text/css">
	.st0{fill:#FFFFFF;}
	.st1{fill:#1B2C5A;}
	.st2{fill:none;stroke:#FFFFFF;stroke-width:2.1963;stroke-miterlimit:10;}
	.st3{fill:none;stroke:#FFFFFF;stroke-width:4.3927;stroke-miterlimit:10;}
	.st4{fill:none;stroke:#FFFFFF;stroke-width:6.6237;stroke-miterlimit:10;}
</style>
<title>gdw</title>
<path class="st0" d="M179.5,108.3H223c1.2,0,2.2,0.4,3,1.3c0.8,0.8,1.3,1.8,1.3,3v20.6c0,13.9-5,24.6-14.9,32.2
	c-9.9,7.5-23.1,11.3-39.6,11.3s-29.5-3.6-39-10.7c-9.5-7.1-14.2-17.9-14.2-32.1V108c0-13.7,4.8-24.1,14.5-31.4
	c9.7-7.2,22.6-10.9,38.8-10.9s29.3,3.3,39.3,9.8s15,14.6,15,24.1c0,0.9-0.3,1.7-1,2.4c-0.7,0.7-1.5,1-2.4,1h-34.9
	c-2.1,0-3.6-0.5-4.6-1.4c-2.1-2.2-3.7-3.5-4.7-3.8c-2.4-0.8-4.6-1.1-6.6-1.1c-8.1,0-12.2,3.7-12.2,11.2v25.4c0,8.5,4.3,12.7,13,12.7
	c8.9,0,13.3-3.8,13.3-11.4h-7.4c-1.2,0-2.2-0.4-3-1.3c-0.8-0.8-1.3-1.8-1.3-3v-17.6c0-1.2,0.4-2.2,1.3-3
	C177.3,108.8,178.3,108.3,179.5,108.3z"/>
<path class="st0" d="M248.9,65.8h45.5c15.4,0,28.1,3.8,38,11.5c10,7.6,14.9,18.3,14.9,32v23.6c0,14.3-4.9,25.2-14.5,32.6
	c-9.7,7.4-22.5,11.1-38.3,11.1h-45.7c-1.2,0-2.2-0.4-3-1.3c-0.8-0.8-1.3-1.8-1.3-3V70.1c0-1.2,0.4-2.2,1.3-3
	C246.7,66.2,247.7,65.8,248.9,65.8z"/>
<path class="st0" d="M404.5,176.5h-22.6c-2,0-3.7-0.6-5-1.8s-2.1-2.6-2.3-4.2L353.5,69.7v-0.5c0-0.9,0.3-1.8,1-2.5s1.5-1,2.4-1h29.4
	c3.5,0,5.4,1.4,5.7,4.3l12,62.2l6.5-19.8c1.1-3.1,2.8-4.6,5.4-4.6H432c2.5,0,4.3,1.5,5.4,4.6l6.5,19.6l12-62
	c0.3-2.8,2.2-4.3,5.7-4.3H491c0.9,0,1.8,0.3,2.4,1c0.7,0.7,1,1.5,1,2.5v0.5l-21.1,100.7c-0.2,1.6-1,3-2.3,4.2s-3,1.8-5,1.8h-22.6
	c-3.3,0-5.4-1.4-6.5-4.3l-13-14.8l-13,14.8C409.9,175.1,407.8,176.5,404.5,176.5z"/>
<path class="st1" d="M281.2,176.5c0,0,42.5,5.9,59.1-18.6l-20.8-6.5L281.2,176.5z"/>
<path class="st1" d="M340.2,157.9c-16.4-41.2-49.5-48.6-49.5-48.6s-20.6,23.9-9.6,67.2"/>
<path class="st0" d="M343.2,166.4"/>
<line class="st2" x1="298.2" y1="152.5" x2="312" y2="147.6"/>
<line class="st2" x1="301" y1="160.1" x2="314.7" y2="155.2"/>
<line class="st2" x1="303.7" y1="167.9" x2="317.4" y2="163"/>
<line class="st3" x1="313.8" y1="174.3" x2="302" y2="141.1"/>
<line class="st4" x1="99.2" y1="174" x2="99.2" y2="68.6"/>
<path class="st4" d="M102.2,69.9c-13.3,1.2-21.8,21.8-35.1,23.6c-2.9,0.4-5.8-0.2-8.7,0.1c-4.9,0.6-9,3.9-12.1,7.7
	s-5.3,8.2-8.2,12.2c-7,9.5-17.7,16.2-29.3,18.4c7.4,5.6,16.6,9.1,25.9,9s18.7-3.8,24.9-10.8c2.5-2.8,4.7-6.3,8.2-7.6
	c3.3-1.3,7.1-0.4,10.7-0.7c8.5-0.7,14.9-5.8,20.3-12.3"/>
</svg>
